<svg width="893" height="893" viewBox="0 0 893 893" fill="none" xmlns="http://www.w3.org/2000/svg">
<path d="M720.732 208.191C735.555 193.368 735.555 169.335 720.732 154.512C705.909 139.689 681.876 139.689 667.052 154.512C652.229 169.335 652.229 193.368 667.053 208.191C681.876 223.014 705.909 223.014 720.732 208.191Z" fill="#51BCA2"/>
<path d="M627.905 255.911C640.605 255.911 650.9 245.616 650.9 232.917C650.9 220.217 640.605 209.922 627.905 209.922C615.205 209.922 604.91 220.217 604.91 232.917C604.91 245.616 615.205 255.911 627.905 255.911Z" fill="#51BCA2"/>
<path d="M706.589 251.701C708.804 242.155 702.86 232.621 693.314 230.407C683.768 228.192 674.234 234.136 672.019 243.682C669.805 253.228 675.748 262.762 685.295 264.976C694.841 267.191 704.375 261.247 706.589 251.701Z" fill="#51BCA2"/>
<path d="M617.844 170.34H615.25V188.937H617.844V170.34Z" fill="#35468E"/>
<path d="M625.845 178.342H607.248V180.936H625.845V178.342Z" fill="#35468E"/>
<path d="M640.992 120.578H637.094V148.511H640.992V120.578Z" fill="#35468E"/>
<path d="M653.005 132.592H625.072V136.49H653.005V132.592Z" fill="#35468E"/>
<path d="M728.58 263.412H725.629V284.563H728.58V263.412Z" fill="#35468E"/>
<path d="M737.686 272.508H716.535V275.459H737.686V272.508Z" fill="#35468E"/>
<path opacity="0.4" d="M401.749 214.811C415.196 201.364 415.196 179.562 401.749 166.114C388.301 152.667 366.499 152.667 353.052 166.114C339.604 179.562 339.604 201.364 353.052 214.811C366.499 228.259 388.301 228.259 401.749 214.811Z" fill="#D4566D"/>
<path opacity="0.4" d="M459.578 644.607C480.98 644.607 498.33 627.257 498.33 605.855C498.33 584.453 480.98 567.104 459.578 567.104C438.176 567.104 420.826 584.453 420.826 605.855C420.826 627.257 438.176 644.607 459.578 644.607Z" fill="#D4566D"/>
<path d="M387.812 662.695H386.597V661.579C388.432 661.606 390.299 661.579 392.129 661.463L392.196 662.575C390.759 662.651 389.281 662.695 387.812 662.695ZM380.985 662.383C379.123 662.213 377.248 661.972 375.413 661.664L375.596 660.566C377.382 660.869 379.252 661.106 381.088 661.271L380.985 662.383ZM397.809 662.03L397.662 660.923C399.483 660.677 401.318 660.36 403.113 659.976L403.346 661.07C401.524 661.459 399.657 661.78 397.831 662.03H397.809ZM369.907 660.526C368.094 660.079 366.277 659.552 364.505 658.967L364.857 657.909C366.599 658.485 368.389 658.999 370.175 659.441L369.907 660.526ZM408.793 659.695L408.48 658.623C410.244 658.105 412.012 657.512 413.727 656.864L414.124 657.909C412.378 658.588 410.588 659.168 408.793 659.695ZM359.231 657.016C357.508 656.297 355.789 655.502 354.123 654.654L354.628 653.658C356.267 654.493 357.959 655.275 359.66 655.985L359.231 657.016ZM419.29 655.73L418.821 654.721C420.482 653.94 422.139 653.091 423.733 652.189L424.282 653.158C422.666 654.065 420.987 654.931 419.295 655.721L419.29 655.73ZM349.19 651.917C347.596 650.948 346.019 649.903 344.497 648.792L345.149 647.899C346.645 648.97 348.198 649.997 349.77 650.953L349.19 651.917ZM429.086 650.207L428.466 649.278C429.993 648.256 431.502 647.166 432.931 646.032L433.618 646.925C432.158 648.064 430.631 649.171 429.086 650.207ZM340.09 645.358C338.661 644.161 337.255 642.893 335.92 641.589L336.701 640.79C338.018 642.072 339.38 643.322 340.809 644.505L340.09 645.358ZM437.927 643.286L437.177 642.46C438.516 641.223 439.856 639.915 441.124 638.58L441.937 639.344C440.646 640.701 439.298 642.027 437.918 643.286H437.927ZM332.044 637.522C330.812 636.12 329.615 634.655 328.472 633.168L329.365 632.494C330.472 633.959 331.651 635.401 332.87 636.781L332.044 637.522ZM445.638 635.111L444.767 634.41C445.928 632.976 447.049 631.485 448.094 629.976L449.009 630.614C447.942 632.146 446.803 633.66 445.629 635.111H445.638ZM325.266 628.565C324.253 626.993 323.293 625.368 322.404 623.734L323.386 623.198C324.279 624.81 325.208 626.413 326.204 627.962L325.266 628.565ZM452.036 625.886L451.072 625.323C452.001 623.734 452.885 622.091 453.688 620.439L454.693 620.93C453.863 622.595 452.97 624.261 452.027 625.873L452.036 625.886ZM319.913 618.711C319.154 617.01 318.444 615.255 317.814 613.505L318.863 613.125C319.488 614.853 320.203 616.577 320.935 618.255L319.913 618.711ZM456.966 615.786L455.93 615.371C456.609 613.665 457.229 611.906 457.778 610.147L458.846 610.482C458.278 612.25 457.662 614.036 456.957 615.773L456.966 615.786ZM316.122 608.133C315.626 606.347 315.193 604.49 314.836 602.659L315.93 602.445C316.283 604.231 316.707 606.061 317.198 607.834L316.122 608.133ZM460.314 605.039L459.225 604.793C459.636 603.007 459.984 601.172 460.261 599.355L461.364 599.52C461.074 601.369 460.716 603.222 460.301 605.039H460.314ZM313.965 597.109C313.746 595.256 313.599 593.372 313.519 591.506L314.635 591.461C314.711 593.296 314.863 595.153 315.081 596.975L313.965 597.109ZM461.993 593.934L460.882 593.854C461.015 592.024 461.087 590.162 461.087 588.322H462.203C462.19 590.193 462.127 592.082 461.98 593.934H461.993ZM461.1 587.576C461.1 585.732 460.993 583.87 460.837 582.044L461.949 581.95C462.109 583.803 462.199 585.692 462.217 587.563L461.1 587.576ZM314.626 585.92L313.51 585.884C313.568 584.018 313.702 582.129 313.898 580.281L315.01 580.401C314.782 582.236 314.653 584.08 314.595 585.92H314.626ZM460.163 576.543C459.872 574.726 459.502 572.9 459.073 571.114L460.158 570.855C460.605 572.668 460.966 574.521 461.266 576.365L460.163 576.543ZM315.809 574.914L314.711 574.708C315.05 572.873 315.465 571.029 315.943 569.225L317.019 569.511C316.519 571.297 316.122 573.114 315.778 574.923L315.809 574.914ZM457.573 565.787C457.01 564.037 456.372 562.287 455.675 560.585L456.707 560.139C457.417 561.871 458.046 563.644 458.636 565.421L457.573 565.787ZM318.64 564.22L317.586 563.849C318.202 562.086 318.89 560.322 319.636 558.612L320.658 559.058C319.895 560.755 319.216 562.488 318.609 564.229L318.64 564.22ZM453.389 555.549C452.568 553.91 451.67 552.281 450.71 550.7L451.67 550.128C452.63 551.727 453.537 553.383 454.372 555.04L453.389 555.549ZM323.065 554.067L322.078 553.544C322.971 551.897 323.904 550.258 324.9 548.677L325.842 549.276C324.829 550.838 323.895 552.45 323.034 554.075L323.065 554.067ZM447.67 546.07C446.607 544.565 445.477 543.087 444.307 541.672L445.169 540.962C446.357 542.4 447.504 543.9 448.58 545.427L447.67 546.07ZM328.941 544.73L328.048 544.065C329.16 542.569 330.347 541.091 331.566 539.68L332.41 540.413C331.205 541.783 330.035 543.239 328.941 544.73ZM440.624 537.586C439.347 536.247 438.007 534.965 436.637 533.742L437.382 532.911C438.771 534.153 440.133 535.465 441.428 536.814L440.624 537.586ZM336.187 536.385L335.397 535.595C336.737 534.255 338.112 532.996 339.532 531.786L340.255 532.635C338.862 533.787 337.491 535.05 336.187 536.345V536.385ZM432.373 530.206C430.917 529.089 429.394 528.009 427.854 527.004L428.466 526.071C430.028 527.093 431.591 528.187 433.051 529.321L432.373 530.206ZM344.6 529.201L343.939 528.308C345.443 527.205 347.011 526.151 348.596 525.182L349.185 526.129C347.622 527.035 346.082 528.076 344.6 529.161V529.201ZM423.108 524.151C421.496 523.258 419.83 522.423 418.156 521.664L418.602 520.646C420.299 521.418 421.991 522.271 423.63 523.173L423.108 524.151ZM353.989 523.361L353.476 522.37C355.132 521.508 356.838 520.7 358.548 519.963L358.995 520.99C357.302 521.673 355.624 522.472 353.989 523.321V523.361ZM413.012 519.516C411.289 518.887 409.516 518.311 407.748 517.811L408.052 516.739C409.838 517.244 411.646 517.829 413.41 518.472L413.012 519.516ZM364.134 518.967L363.772 517.913C365.558 517.311 367.344 516.766 369.157 516.302L369.438 517.382C367.675 517.842 365.889 518.387 364.152 518.967H364.134ZM402.368 516.511C400.582 516.15 398.733 515.851 396.903 515.618L397.041 514.511C398.898 514.739 400.765 515.042 402.587 515.404L402.368 516.511ZM374.845 516.203L374.649 515.105C376.48 514.779 378.35 514.516 380.212 514.328L380.328 515.435C378.511 515.623 376.667 515.882 374.863 516.203H374.845ZM391.388 515.15C389.549 515.06 387.682 515.038 385.852 515.087L385.82 513.971C387.682 513.922 389.575 513.944 391.442 514.033L391.388 515.15Z" fill="#35468E"/>
<path d="M327.378 221.463V220.347C329.216 220.33 331.051 220.205 332.874 219.972L333.017 221.079C331.147 221.318 329.264 221.446 327.378 221.463ZM321.743 221.178C319.873 220.971 318.017 220.653 316.184 220.227L316.439 219.137C318.228 219.558 320.041 219.87 321.868 220.07L321.743 221.178ZM338.549 220.021L338.277 218.941C340.058 218.489 341.81 217.93 343.523 217.266L343.93 218.307C342.172 218.983 340.376 219.551 338.549 220.008V220.021ZM310.764 218.592C308.995 217.942 307.267 217.186 305.589 216.329L306.098 215.337C307.735 216.174 309.421 216.91 311.148 217.543L310.764 218.592ZM349.046 215.94L348.524 214.953C350.149 214.095 351.719 213.138 353.226 212.087L353.864 212.98C352.322 214.062 350.716 215.05 349.055 215.94H349.046ZM300.726 213.462C299.171 212.41 297.681 211.266 296.261 210.037L296.994 209.194C298.386 210.393 299.847 211.509 301.369 212.538L300.726 213.462ZM358.28 209.484L357.534 208.653C358.903 207.425 360.199 206.117 361.415 204.738L362.249 205.474C361.01 206.888 359.688 208.227 358.289 209.484H358.28ZM292.198 206.099C290.93 204.708 289.746 203.243 288.653 201.71L289.546 201.063C290.612 202.56 291.767 203.992 293.006 205.349L292.198 206.099ZM365.728 201.023L364.79 200.389C365.829 198.873 366.778 197.297 367.63 195.669L368.621 196.187C367.752 197.854 366.786 199.469 365.728 201.023ZM285.666 196.928C284.765 195.277 283.964 193.572 283.268 191.825L284.308 191.41C284.987 193.117 285.77 194.781 286.653 196.392L285.666 196.928ZM370.947 191.03L369.903 190.637C370.549 188.916 371.092 187.158 371.528 185.373L372.613 185.636C372.168 187.466 371.612 189.268 370.947 191.03ZM281.504 186.462C281.026 184.642 280.657 182.795 280.402 180.93L281.509 180.778C281.76 182.599 282.121 184.404 282.589 186.181L281.504 186.462ZM373.617 180.086L372.51 179.952C372.728 178.127 372.837 176.29 372.836 174.451C372.836 173.898 372.836 173.34 372.809 172.786L373.925 172.746C373.925 173.313 373.952 173.884 373.952 174.451C373.953 176.335 373.841 178.216 373.617 180.086ZM279.955 175.304C279.955 175.023 279.955 174.737 279.955 174.451C279.955 172.854 280.035 171.258 280.196 169.669L281.304 169.781C281.152 171.321 281.071 172.907 281.071 174.451C281.071 174.733 281.071 175.01 281.071 175.286L279.955 175.304ZM372.282 167.303C372 165.487 371.606 163.69 371.104 161.923L372.18 161.615C372.691 163.427 373.093 165.268 373.385 167.129L372.282 167.303ZM282.188 164.343L281.098 164.097C281.512 162.259 282.037 160.447 282.67 158.672L283.719 159.047C283.103 160.78 282.592 162.549 282.188 164.343ZM369.286 156.721C368.574 155.028 367.762 153.379 366.853 151.783L367.826 151.229C368.754 152.86 369.585 154.545 370.313 156.274L369.286 156.721ZM285.88 153.979L284.867 153.479C285.707 151.795 286.648 150.162 287.684 148.59L288.617 149.202C287.611 150.738 286.697 152.334 285.88 153.979ZM363.848 147.166C362.752 145.69 361.569 144.279 360.307 142.942L361.12 142.178C362.414 143.545 363.624 144.989 364.745 146.501L363.848 147.166ZM291.961 144.795L291.109 144.072C292.326 142.636 293.627 141.275 295.007 139.995L295.766 140.812C294.414 142.063 293.138 143.393 291.944 144.795H291.961ZM356.307 139.173C354.893 137.997 353.411 136.906 351.868 135.905L352.471 134.967C354.054 135.99 355.573 137.107 357.021 138.312L356.307 139.173ZM300.003 137.312L299.347 136.419C300.869 135.312 302.457 134.298 304.102 133.382L304.647 134.356C303.042 135.249 301.491 136.236 300.003 137.312ZM347.055 133.195C345.403 132.387 343.703 131.681 341.965 131.078L342.331 130.025C344.111 130.643 345.852 131.366 347.546 132.19L347.055 133.195ZM309.607 131.962L309.183 130.927C310.93 130.213 312.72 129.608 314.541 129.114L314.836 130.19C313.059 130.675 311.313 131.267 309.607 131.962ZM336.656 129.596C334.859 129.209 333.04 128.932 331.209 128.766L331.312 127.654C333.188 127.823 335.052 128.108 336.893 128.507L336.656 129.596ZM320.216 129.06L320.051 127.957C321.913 127.683 323.79 127.521 325.672 127.471L325.703 128.587C323.866 128.635 322.034 128.793 320.216 129.06Z" fill="#35468E"/>
<path d="M139.531 461.543C136.33 461.543 133.201 460.594 130.539 458.815C127.877 457.037 125.803 454.509 124.578 451.551C123.353 448.594 123.032 445.34 123.657 442.2C124.281 439.06 125.823 436.176 128.086 433.913C130.35 431.649 133.234 430.107 136.374 429.483C139.513 428.858 142.768 429.179 145.725 430.404C148.683 431.629 151.211 433.704 152.989 436.365C154.768 439.027 155.717 442.156 155.717 445.358C155.712 449.649 154.005 453.763 150.971 456.797C147.937 459.832 143.823 461.538 139.531 461.543ZM139.531 431.404C136.772 431.404 134.074 432.223 131.779 433.756C129.485 435.289 127.696 437.468 126.64 440.018C125.584 442.567 125.308 445.373 125.846 448.08C126.385 450.786 127.714 453.272 129.665 455.224C131.616 457.175 134.103 458.504 136.809 459.043C139.516 459.581 142.321 459.305 144.871 458.249C147.421 457.192 149.6 455.404 151.133 453.109C152.666 450.815 153.484 448.117 153.484 445.358C153.48 441.658 152.008 438.112 149.392 435.496C146.777 432.881 143.23 431.409 139.531 431.404Z" fill="#35468E"/>
<path d="M680.913 253.625H217.004V596.608H680.913V253.625Z" fill="white"/>
<path d="M682.029 597.726H215.883V252.51H682.029V597.726ZM218.115 595.493H679.796V254.742H218.115V595.493Z" fill="#35468E"/>
<path d="M287.099 485.211H249.146V558.656H287.099V485.211Z" fill="#51BCA2"/>
<path d="M347.376 448.586H309.424V558.657H347.376V448.586Z" fill="#51BCA2"/>
<path d="M407.654 373.047H369.701V558.657H407.654V373.047Z" fill="#51BCA2"/>
<path d="M467.933 426.676H429.98V558.657H467.933V426.676Z" fill="#51BCA2"/>
<path d="M528.21 368.469H490.258V558.655H528.21V368.469Z" fill="#51BCA2"/>
<path d="M588.488 378.404H550.535V558.656H588.488V378.404Z" fill="#51BCA2"/>
<path d="M648.765 312.545H610.812V558.656H648.765V312.545Z" fill="#51BCA2"/>
<path d="M260.591 529.513L259.582 527.521L322.972 495.271L388.344 406.23L448.193 468.873L509.72 407.346L569.391 414.597L629.284 345.836L630.963 347.3L570.301 416.954L510.533 409.694L448.157 472.07L388.567 409.694L324.454 497.021L260.591 529.513Z" fill="#407BFF"/>
<path d="M542.351 295.967H355.566V298.199H542.351V295.967Z" fill="#407BFF"/>
<path d="M479.3 320.525H418.611V322.758H479.3V320.525Z" fill="#407BFF"/>
<path d="M209.508 662.191C213.134 642.861 210.817 622.887 202.864 604.9C194.947 587.223 181.525 572.391 165.215 563.291C173.475 573.77 175.605 588.152 176.444 601.793C177.284 615.433 177.221 629.525 182.168 642.143C187.116 654.761 198.805 665.682 211.584 664.102L209.508 662.191Z" fill="#407BFF"/>
<path d="M209.775 667.031C206.15 647.701 208.468 627.727 216.423 609.741C224.34 592.064 237.757 577.231 254.072 568.127C245.807 578.611 243.678 592.988 242.843 606.633C242.008 620.278 242.066 634.361 237.114 646.979C232.162 659.597 220.482 670.523 207.703 668.938L209.775 667.031Z" fill="#407BFF"/>
<path d="M195.121 657.903C186.888 644.2 184.642 626.613 189.134 611.075C193.626 595.536 204.788 582.329 218.844 575.908C215.884 595.554 230.484 614.535 227.877 634.243C226.189 646.995 216.607 658.154 204.81 661.105L195.121 657.903Z" fill="#51BCA2"/>
<path d="M201.126 684.274C201.184 664.42 207.828 645.147 220.017 629.475C232.211 613.789 249.799 602.037 269.351 596.51C258.246 605.065 253.005 618.723 249.316 631.926C245.628 645.129 242.815 658.957 234.872 670.325C226.929 681.693 212.025 689.971 198.482 685.734L201.126 684.274Z" fill="#35468E"/>
<path d="M207.279 685.325C207.31 665.746 201.126 646.211 189.932 630.526C178.738 614.84 162.593 603.088 144.666 597.561C154.855 606.115 159.668 619.774 163.057 632.981C166.446 646.189 169.023 660.008 176.318 671.354C183.614 682.699 197.304 691 209.726 686.762L207.279 685.325Z" fill="#35468E"/>
<path d="M240.118 752.133H169.406L157.248 678.501H252.277L240.118 752.133Z" fill="white"/>
<path d="M240.834 752.969H168.697L156.275 677.662H253.264L240.834 752.969ZM170.117 751.294H239.409L251.291 679.336H158.236L170.117 751.294Z" fill="#35468E"/>
<path d="M333.786 196.93H118.314V366.184H333.786V196.93Z" fill="white"/>
<path d="M334.902 367.3H117.197V195.812H334.902V367.3ZM119.43 365.067H332.669V198.045H119.43V365.067Z" fill="#35468E"/>
<path d="M196.183 224.656H147.586V252.174H196.183V224.656Z" fill="#51BCA2"/>
<path d="M305.089 227.309H216.678V228.478H305.089V227.309Z" fill="#35468E"/>
<path d="M305.089 237.832H216.678V239.002H305.089V237.832Z" fill="#51BCA2"/>
<path d="M305.089 248.352H216.678V249.521H305.089V248.352Z" fill="#51BCA2"/>
<path d="M180.573 307.08H170.424V338.523H180.573V307.08Z" fill="#51BCA2"/>
<path d="M190.723 291.779H180.574V338.519H190.723V291.779Z" fill="#35468E"/>
<path d="M218.436 286.488H208.287V338.322H218.436V286.488Z" fill="#51BCA2"/>
<path d="M228.586 319.141H218.438V338.322H228.586V319.141Z" fill="#35468E"/>
<path d="M256.299 302.584H246.15V338.478H256.299V302.584Z" fill="#51BCA2"/>
<path d="M266.45 294.645H256.301V338.473H266.45V294.645Z" fill="#35468E"/>
<path d="M294.163 313.215H284.014V338.246H294.163V313.215Z" fill="#51BCA2"/>
<path d="M304.313 278.521H294.164V338.245H304.313V278.521Z" fill="#35468E"/>
<path d="M304.313 338.83H148.078V275.789H149.248V337.661H304.313V338.83Z" fill="#35468E"/>
<path d="M750.723 721.91L757.42 751.853L711.936 751.768L730.912 735.39L729.514 720.513L750.723 721.91Z" fill="#1B1B43"/>
<path d="M731.448 734.721L730.371 736.003L737.905 742.334L738.982 741.052L731.448 734.721Z" fill="#EBEBFF"/>
<path d="M661.146 721.437L664.494 751.852H615.656L637.981 735.39V720.32L661.146 721.437Z" fill="#1B1B43"/>
<path d="M638.521 734.723L637.443 736.005L644.977 742.336L646.055 741.054L638.521 734.723Z" fill="#EBEBFF"/>
<path d="M758.818 725.536L751.562 725.639L730.027 725.929L718.075 726.094C706.354 685.588 695.379 645.881 686.404 608.366C684.642 601.007 682.965 593.74 681.372 586.563C675.465 559.987 670.755 534.702 667.754 511.274C667.108 506.238 666.543 501.292 666.057 496.437C665.664 492.567 665.33 488.75 665.053 484.984L718.633 493.914C719.169 498.996 719.737 504.093 720.338 509.207C728.411 578.383 742.195 651.082 758.818 725.536Z" fill="#407BFF"/>
<path d="M690.169 492.24L688.472 510.457L681.627 583.773L681.373 586.563L668.424 725.536H628.404C629.199 645.166 631.82 568.726 642.357 512.279C643.131 508.112 643.95 504.064 644.813 500.134L666.058 496.437L690.169 492.24Z" fill="#407BFF"/>
<path d="M671.16 534.36L670.066 534.572L685.262 612.95L686.356 612.738L671.16 534.36Z" fill="#1B1B43"/>
<path opacity="0.3" d="M720.339 509.207L688.472 510.457L667.754 511.274L642.357 512.279C643.131 508.112 643.95 504.063 644.813 500.134L666.058 496.437C665.665 492.567 665.33 488.75 665.053 484.984L718.633 493.914C719.169 498.996 719.737 504.093 720.339 509.207Z" fill="#1B1B43"/>
<path d="M660.721 408.548L681.26 405.98L724.124 414.964L724.37 492.209C724.372 493.256 724.161 494.294 723.748 495.256C723.334 496.219 722.729 497.088 721.967 497.808C720.55 499.144 718.678 499.892 716.73 499.902L644.843 500.147L631.002 458.324L644.299 418.817L660.721 408.548Z" fill="#FFA121"/>
<path d="M686.325 425.457C681.85 425.484 677.535 423.793 674.27 420.733L674.846 420.121C681.222 426.122 691.241 426.113 698.666 420.121L699.193 420.773C695.568 423.764 691.025 425.417 686.325 425.457Z" fill="#1B1B43"/>
<path d="M732.211 420.804C731.446 417.364 729.647 414.239 727.054 411.851C724.462 409.463 721.201 407.925 717.709 407.445L690.352 403.686L706.912 431.962L712.025 449.657L737.806 446.023L732.211 420.804Z" fill="#FFA121"/>
<path d="M743.325 476.277C742.678 485.846 736.896 489.918 729.551 491.592C721.893 493.334 712.548 492.485 705.529 492.485C693.987 492.517 682.445 492.039 670.912 491.391L641.612 491.668L638.264 486.458C642.081 481.064 652.404 474 670.443 478.273L717.236 467.669L712.026 449.644L737.811 446.014L743.088 469.826C743.388 471.962 743.467 474.124 743.325 476.277Z" fill="#FFBC96"/>
<path d="M617.611 456.8L636.029 479.96L639.378 480.799L642.138 453.84L623.291 444.945L617.611 456.8Z" fill="#FFBC96"/>
<path d="M679.006 403.498L652.105 407.758C648.437 408.337 644.964 409.799 641.987 412.018C639.009 414.237 636.616 417.147 635.013 420.496L623.314 444.947L642.161 453.841L644.144 434.476L679.006 403.498Z" fill="#FFA121"/>
<path opacity="0.2" d="M743.325 476.278C742.677 485.846 736.895 489.918 729.55 491.593C727.976 489.666 727.143 487.239 727.202 484.752C727.261 482.265 728.208 479.88 729.872 478.03C731.536 476.181 733.807 474.987 736.274 474.665C738.741 474.344 741.242 474.916 743.325 476.278Z" fill="#FE5B52"/>
<path d="M643.741 434.45L637.854 486.443L638.688 486.538L644.575 434.545L643.741 434.45Z" fill="#1B1B43"/>
<path d="M707.298 431.88L706.496 432.111L716.82 467.834L717.622 467.602L707.298 431.88Z" fill="#1B1B43"/>
<path d="M696.424 342.395C696.236 340.486 696.414 338.558 696.947 336.715C697.507 334.817 698.745 333.19 700.425 332.143C701.278 331.644 702.214 331.304 703.189 331.138C704.156 330.979 705.141 330.959 706.113 331.08C708.05 331.319 709.907 331.997 711.543 333.063C713.205 334.114 714.55 335.597 715.436 337.354C716.319 339.144 716.503 341.199 715.954 343.118C715.369 344.972 714.344 346.657 712.967 348.03C711.627 349.376 710.127 350.555 708.502 351.539L708.323 351.267C709.864 350.217 711.282 348.998 712.552 347.632C713.818 346.299 714.743 344.68 715.249 342.913C715.714 341.163 715.525 339.304 714.717 337.684C713.879 336.071 712.626 334.71 711.087 333.742C709.565 332.73 707.831 332.081 706.019 331.844C704.223 331.573 702.387 331.886 700.782 332.737C699.213 333.669 698.04 335.143 697.482 336.88C697.181 337.748 696.974 338.647 696.866 339.559C696.767 340.486 696.728 341.418 696.75 342.35L696.424 342.395Z" fill="#1B1B43"/>
<path d="M705.559 351.771C710.501 351.771 714.507 347.765 714.507 342.823C714.507 337.881 710.501 333.875 705.559 333.875C700.617 333.875 696.611 337.881 696.611 342.823C696.611 347.765 700.617 351.771 705.559 351.771Z" fill="#1B1B43"/>
<path d="M712.337 392.335L707.537 384.99L709.39 393.116L692.825 397.492L661.704 398.756L664.214 374.051C656.266 370.144 650.631 344.961 680.801 340.72C686.284 339.952 691.91 340.443 697 342.595C712.516 349.158 717.762 366.563 719.191 390.527L712.337 392.335Z" fill="#1B1B43"/>
<path d="M686.477 418.472C683.252 418.472 680.16 417.191 677.879 414.911C675.599 412.631 674.318 409.539 674.318 406.314V379.971H698.63V406.314C698.63 409.538 697.35 412.63 695.071 414.91C692.792 417.19 689.7 418.471 686.477 418.472Z" fill="#FFBC96"/>
<path d="M690.779 391.031C688.176 398.707 682.077 402.296 674.312 404.243V392.799L690.779 391.031Z" fill="#1B1B43"/>
<path d="M698.117 354.383L697.331 388.522C697.331 388.522 682.98 398.966 672.934 395.965C669.563 394.961 667.273 391.13 665.723 386.366C664.975 383.989 664.389 381.565 663.968 379.11C662.991 373.104 662.49 367.031 662.473 360.946L698.117 354.383Z" fill="#FFBC96"/>
<path d="M668.755 375.376C668.755 376.394 668.148 377.216 667.416 377.216C666.683 377.216 666.076 376.394 666.076 375.376C666.076 374.358 666.683 373.541 667.416 373.541C668.148 373.541 668.755 374.363 668.755 375.376Z" fill="#1B1B43"/>
<path d="M677.725 376.699C678.574 376.699 679.261 375.746 679.261 374.569C679.261 373.393 678.574 372.439 677.725 372.439C676.877 372.439 676.189 373.393 676.189 374.569C676.189 375.746 676.877 376.699 677.725 376.699Z" fill="#1B1B43"/>
<path d="M682.73 370.239C682.677 370.761 680.944 370.882 678.998 370.542C677.051 370.203 675.426 370.301 675.72 369.015C675.975 367.962 677.506 368.051 679.444 368.39C681.382 368.73 682.779 369.783 682.73 370.239Z" fill="#1B1B43"/>
<path d="M663.793 371.407C663.86 371.925 665.347 371.902 666.977 371.407C668.606 370.911 670.013 370.875 669.696 369.621C669.441 368.594 668.142 368.808 666.512 369.304C664.883 369.799 663.735 370.96 663.793 371.407Z" fill="#1B1B43"/>
<path opacity="0.2" d="M689.396 379.012C689.396 379.798 689.163 380.568 688.726 381.222C688.288 381.876 687.667 382.386 686.94 382.687C686.213 382.988 685.413 383.067 684.642 382.913C683.87 382.76 683.161 382.381 682.605 381.825C682.048 381.268 681.669 380.559 681.516 379.788C681.362 379.016 681.441 378.216 681.742 377.489C682.043 376.762 682.553 376.141 683.208 375.704C683.862 375.267 684.631 375.033 685.418 375.033C685.94 375.033 686.458 375.135 686.941 375.335C687.424 375.535 687.863 375.828 688.232 376.197C688.602 376.567 688.895 377.005 689.094 377.488C689.294 377.971 689.397 378.489 689.396 379.012Z" fill="#FE5B52"/>
<path opacity="0.2" d="M667.517 383.061C667.517 383.717 667.354 384.362 667.042 384.939C666.73 385.516 666.28 386.006 665.731 386.365C664.983 383.989 664.397 381.565 663.977 379.109C664.95 379.216 665.85 379.678 666.503 380.408C667.156 381.137 667.518 382.082 667.517 383.061Z" fill="#FE5B52"/>
<path d="M671.898 377.002C671.931 377.358 671.87 377.717 671.72 378.042C671.583 378.344 671.414 378.63 671.215 378.895C670.87 379.293 670.594 379.746 670.398 380.234C670.349 380.431 670.349 380.636 670.398 380.833C670.453 381.041 670.563 381.23 670.715 381.382C671.11 381.753 671.583 382.031 672.099 382.194L672.059 382.641C671.357 382.734 670.645 382.553 670.072 382.136C669.75 381.897 669.504 381.568 669.367 381.19C669.228 380.798 669.207 380.375 669.304 379.971C669.537 379.313 669.937 378.726 670.465 378.27C670.887 377.913 671.222 377.464 671.443 376.957L671.898 377.002Z" fill="#1B1B43"/>
<path d="M670.84 386.057C672.309 390.732 678.587 388.356 679.073 383.963L670.84 386.057Z" fill="white"/>
<path d="M661.267 366.384C671.773 366.362 680.587 365.397 688.892 361.361C689.785 368.215 692.732 371.523 696.706 373.358L705.077 366.384L700.773 352.288L678.028 351.033L660.445 359.825L661.267 366.384Z" fill="#1B1B43"/>
<path d="M703.318 378.397C705.581 375.18 705.601 371.296 703.363 369.721C701.124 368.146 697.475 369.476 695.211 372.693C692.948 375.91 692.928 379.794 695.167 381.37C697.405 382.945 701.055 381.614 703.318 378.397Z" fill="#FFBC96"/>
<path d="M697.286 377.814C697.123 377.225 697.076 376.609 697.148 376.001C697.215 375.36 697.442 374.746 697.808 374.215C698.19 373.674 698.716 373.25 699.327 372.992C699.9 372.748 700.522 372.641 701.144 372.679L701.22 373.126C700.723 373.341 700.242 373.591 699.782 373.876C699.368 374.138 699.007 374.474 698.715 374.867C698.432 375.276 698.218 375.729 698.081 376.207C697.929 376.707 697.835 377.247 697.724 377.81L697.286 377.814Z" fill="#1B1B43"/>
<path d="M708.399 351.396C707.306 350.726 706.262 349.98 705.274 349.164L702.443 346.828C701.514 346.06 700.594 345.297 699.639 344.565C698.683 343.832 697.697 343.127 696.594 342.368C697.934 342.264 699.28 342.494 700.51 343.038C701.727 343.559 702.861 344.258 703.872 345.114C704.874 345.951 705.773 346.905 706.551 347.954C707.33 349.006 707.953 350.165 708.399 351.396Z" fill="#FFA121"/>
<path d="M668.772 491.494H639.191V500.237H668.772V491.494Z" fill="#1B1B43"/>
<path d="M648.681 500.24H581.706L552.312 436.752H619.288L648.681 500.24Z" fill="#EBEBFF"/>
<path d="M623.889 497.4C623.16 497.535 622.502 497.922 622.029 498.494C621.557 499.065 621.3 499.784 621.304 500.526V493.601C621.318 492.921 621.084 492.26 620.646 491.741C620.208 491.222 619.596 490.879 618.924 490.779C618.557 490.734 618.185 490.766 617.83 490.872C617.476 490.978 617.148 491.157 616.866 491.397C616.584 491.636 616.355 491.931 616.193 492.264C616.03 492.596 615.939 492.959 615.924 493.328V490.538C615.938 489.851 615.699 489.182 615.253 488.66C614.807 488.137 614.184 487.796 613.504 487.702C613.128 487.66 612.747 487.698 612.386 487.813C612.026 487.929 611.694 488.12 611.413 488.373C611.131 488.626 610.907 488.936 610.754 489.282C610.601 489.628 610.523 490.003 610.525 490.381V493.324C610.51 492.954 610.419 492.592 610.257 492.259C610.095 491.927 609.865 491.632 609.583 491.392C609.302 491.153 608.973 490.974 608.619 490.868C608.265 490.761 607.892 490.73 607.525 490.774C606.853 490.875 606.241 491.217 605.803 491.736C605.365 492.256 605.131 492.917 605.145 493.596V499.093C605.069 497.686 604.002 495.967 602.542 495.811C599.542 495.529 600.202 500.803 600.202 500.803C601.095 506.134 602.649 506.723 605.846 506.951C610.89 507.304 615.952 507.304 620.996 506.951C624.211 506.737 624.715 506.388 626.122 501.593C626.595 499.53 626.189 496.985 623.889 497.4Z" fill="#FFBC96"/>
<path d="M605.218 495.307C605.423 496.424 605.538 497.556 605.562 498.691C605.562 499.258 605.562 499.825 605.562 500.392C605.546 500.962 605.492 501.531 605.401 502.093H605.075C604.957 501.535 604.873 500.97 604.825 500.401C604.772 499.839 604.745 499.272 604.731 498.709C604.692 497.573 604.744 496.435 604.888 495.307H605.218Z" fill="#D28572"/>
<path d="M610.692 493.306C610.898 494.496 611.016 495.698 611.045 496.905C611.045 497.503 611.045 498.106 611.045 498.691C611.029 499.289 610.978 499.885 610.893 500.477H610.563C610.443 499.887 610.358 499.291 610.308 498.691C610.255 498.093 610.228 497.49 610.21 496.905C610.171 495.699 610.223 494.491 610.366 493.293L610.692 493.306Z" fill="#D28572"/>
<path d="M616.085 493.303C616.307 494.426 616.441 495.565 616.487 496.71C616.514 497.281 616.522 497.853 616.487 498.424C616.479 498.998 616.436 499.57 616.357 500.139H616.027C615.9 499.579 615.807 499.013 615.75 498.442C615.692 497.87 615.652 497.303 615.629 496.732C615.576 495.589 615.612 494.444 615.737 493.307L616.085 493.303Z" fill="#D28572"/>
<path d="M623.077 497.745C622.829 498.089 622.628 498.464 622.479 498.861C622.314 499.268 622.153 499.683 621.997 500.103C621.841 500.522 621.684 500.942 621.51 501.362C621.342 501.788 621.149 502.204 620.93 502.607L620.617 502.523C620.636 502.056 620.7 501.592 620.809 501.138C620.915 500.683 621.053 500.235 621.22 499.799C621.388 499.356 621.598 498.93 621.845 498.526C622.093 498.088 622.454 497.724 622.89 497.473L623.077 497.745Z" fill="#D28572"/>
<path d="M762.113 354.529V385.182L747.973 395.228H762.113H814.711V354.529H762.113Z" fill="white"/>
<path d="M815.269 395.787H746.227L761.555 384.884V353.973H815.269V395.787ZM749.723 394.671H814.153V355.089H762.671V385.473L749.723 394.671Z" fill="#35468E"/>
<path d="M787.694 385.701L779.107 377.431L780.657 375.824L787.135 382.062L798.155 361.857L800.115 362.929L787.694 385.701Z" fill="#35468E"/>
<path d="M816.573 751.294H95.002V752.968H816.573V751.294Z" fill="white"/>
</svg>
