<svg width="38" height="36" viewBox="0 0 38 36" fill="none" xmlns="http://www.w3.org/2000/svg">
<path fill-rule="evenodd" clip-rule="evenodd" d="M21.3329 0.809616C19.9606 -0.26987 18.0392 -0.269873 16.667 0.809615L0.737975 13.3406C-0.691494 14.4652 0.0947863 16.7827 1.90562 16.7827H3.80006V32.1565C3.80006 34.2792 5.50136 36 7.60002 36H30.3998C32.4984 36 34.1997 34.2792 34.1997 32.1565V16.7827H36.0942C37.9031 16.7827 38.6928 14.4664 37.2618 13.3406L21.3329 0.809616ZM24.6998 32.1565H30.3998V14.8802C30.3998 14.271 30.6773 13.7273 31.1115 13.3714L18.9999 3.84346L6.88831 13.3714C7.3225 13.7273 7.60002 14.271 7.60002 14.8802V32.1565H13.3V22.5479C13.3 19.3639 15.8519 16.7827 18.9999 16.7827C22.1479 16.7827 24.6998 19.3639 24.6998 22.5479V32.1565ZM17.0999 32.1565H20.8999V22.5479C20.8999 21.4866 20.0492 20.6262 18.9999 20.6262C17.9506 20.6262 17.0999 21.4866 17.0999 22.5479V32.1565Z" fill="#EADFFB"/>
</svg>
