<svg width="38" height="38" viewBox="0 0 38 38" fill="none" xmlns="http://www.w3.org/2000/svg">
<path fill-rule="evenodd" clip-rule="evenodd" d="M21.3329 0.854595C19.9606 -0.284863 18.0392 -0.284866 16.667 0.854594L0.737975 14.0818C-0.691494 15.2688 0.0947862 17.7151 1.90562 17.7151H3.80006V33.943C3.80006 36.1836 5.50136 38 7.60002 38H30.3998C32.4984 38 34.1997 36.1836 34.1997 33.943V17.7151H36.0942C37.9031 17.7151 38.6928 15.27 37.2618 14.0818L21.3329 0.854595ZM24.6998 33.943H30.3998V15.7069C30.3998 15.0638 30.6773 14.4899 31.1115 14.1143L18.9999 4.05698L6.88831 14.1143C7.3225 14.4899 7.60002 15.0638 7.60002 15.7069V33.943H13.3V23.8006C13.3 20.4397 15.8519 17.7151 18.9999 17.7151C22.1479 17.7151 24.6998 20.4397 24.6998 23.8006V33.943ZM17.0999 33.943H20.8999V23.8006C20.8999 22.6803 20.0492 21.7721 18.9999 21.7721C17.9506 21.7721 17.0999 22.6803 17.0999 23.8006V33.943Z" fill="#EADFFB"/>
</svg>
