<svg width="38" height="38" viewBox="0 0 38 38" fill="none" xmlns="http://www.w3.org/2000/svg">
<path fill-rule="evenodd" clip-rule="evenodd" d="M1.15594 13.2492C-0.385342 12.4306 -0.385288 9.96753 1.15595 9.14896L17.823 0.2968C18.5681 -0.0989336 19.4319 -0.0989332 20.177 0.2968L36.8441 9.14896C38.1904 9.864 38.3606 11.8337 37.355 12.8662V21.5071C37.355 22.6457 36.5332 23.5687 35.5195 23.5687C34.5058 23.5687 33.684 22.6457 33.684 21.5071V14.9276L31.8485 15.9024V23.5687C31.8485 31.5389 26.096 38 18.9999 38C11.9038 38 6.15135 31.5389 6.15135 23.5687V15.9023L1.15594 13.2492ZM28.1775 13.2607H28.2349L32.1166 11.1991L19 4.23266L5.88344 11.1991L9.76509 13.2607H9.82236V13.2911L19 18.1655L28.1775 13.2912V13.2607ZM17.823 22.1013L9.82236 17.8521V23.5687C9.82236 29.2617 13.9313 33.8768 18.9999 33.8768C24.0685 33.8768 28.1775 29.2617 28.1775 23.5687V17.8522L20.177 22.1013C19.4319 22.4971 18.5681 22.4971 17.823 22.1013Z" fill="#EADFFB"/>
</svg>
