<svg width="38" height="36" viewBox="0 0 38 36" fill="none" xmlns="http://www.w3.org/2000/svg">
<path fill-rule="evenodd" clip-rule="evenodd" d="M1.15594 12.5519C-0.385342 11.7763 -0.385288 9.44292 1.15595 8.66743L17.823 0.281179C18.5681 -0.0937265 19.4319 -0.0937262 20.177 0.281179L36.8441 8.66743C38.1904 9.34484 38.3606 11.2109 37.355 12.1891V20.3752C37.355 21.4538 36.5332 22.3283 35.5195 22.3283C34.5058 22.3283 33.684 21.4538 33.684 20.3752V14.1419L31.8485 15.0655V22.3283C31.8485 29.879 26.096 36 18.9999 36C11.9038 36 6.15135 29.879 6.15135 22.3283V15.0654L1.15594 12.5519ZM28.1775 12.5628H28.2349L32.1166 10.6096L19 4.00988L5.88344 10.6096L9.76509 12.5628H9.82236V12.5916L19 17.2094L28.1775 12.5917V12.5628ZM17.823 20.9381L9.82236 16.9125V22.3283C9.82236 27.7216 13.9313 32.0938 18.9999 32.0938C24.0685 32.0938 28.1775 27.7216 28.1775 22.3283V16.9126L20.177 20.9381C19.4319 21.313 18.5681 21.313 17.823 20.9381Z" fill="#EADFFB"/>
</svg>
