<svg width="1920" height="204" viewBox="0 0 1920 204" fill="none" xmlns="http://www.w3.org/2000/svg">
<path fill-rule="evenodd" clip-rule="evenodd" d="M0 0.969727L79.5 8.58437C160.5 16.199 319.5 31.4283 480 57.2009C640.5 83.5593 799.5 121.047 960 128.661C1120.5 136.276 1279.5 113.432 1440 106.403C1600.5 98.7886 1759.5 106.403 1840.5 109.918L1920 113.432L1920 203.636H1840.5C1759.5 203.636 1600.5 203.636 1440 203.636C1279.5 203.636 1120.5 203.636 960 203.636C799.5 203.636 640.5 203.636 480 203.636C319.5 203.636 160.5 203.636 79.5 203.636L0 203.636L0 0.969727Z" fill="#EADFFB"/>
</svg>
