<svg width="1920" height="616" viewBox="0 0 1920 616" fill="none" xmlns="http://www.w3.org/2000/svg">
<path fill-rule="evenodd" clip-rule="evenodd" d="M1920 615.152L1840.5 583.746C1759.5 552.341 1600.5 489.529 1440 383.232C1279.5 274.52 1120.5 119.906 960 88.5004C799.5 57.0945 640.5 151.312 480 180.302C319.5 211.708 160.5 180.302 79.5 165.807L0 151.312V-220.726H79.5C160.5 -220.726 319.5 -220.726 480 -220.726C640.5 -220.726 799.5 -220.726 960 -220.726C1120.5 -220.726 1279.5 -220.726 1440 -220.726C1600.5 -220.726 1759.5 -220.726 1840.5 -220.726H1920V615.152Z" fill="#E78F69" fill-opacity="0.19"/>
</svg>
