<svg width="32" height="32" viewBox="0 0 32 32" fill="none" xmlns="http://www.w3.org/2000/svg">
<path fill-rule="evenodd" clip-rule="evenodd" d="M6.66663 5.33341C6.313 5.33341 5.97387 5.47389 5.72382 5.72394C5.47377 5.97399 5.33329 6.31313 5.33329 6.66675V25.3334C5.33329 25.687 5.47377 26.0262 5.72382 26.2762C5.97387 26.5263 6.313 26.6667 6.66663 26.6667H12C12.7363 26.6667 13.3333 27.2637 13.3333 28.0001C13.3333 28.7365 12.7363 29.3334 12 29.3334H6.66663C5.60576 29.3334 4.58834 28.912 3.8382 28.1618C3.08805 27.4117 2.66663 26.3943 2.66663 25.3334V6.66675C2.66663 5.60588 3.08805 4.58847 3.8382 3.83832C4.58834 3.08818 5.60576 2.66675 6.66663 2.66675H12C12.7363 2.66675 13.3333 3.2637 13.3333 4.00008C13.3333 4.73646 12.7363 5.33341 12 5.33341H6.66663ZM20.3905 8.39061C20.9112 7.86991 21.7554 7.86991 22.2761 8.39061L28.9428 15.0573C29.4635 15.578 29.4635 16.4222 28.9428 16.9429L22.2761 23.6096C21.7554 24.1303 20.9112 24.1303 20.3905 23.6096C19.8698 23.0889 19.8698 22.2446 20.3905 21.7239L24.781 17.3334H12C11.2636 17.3334 10.6666 16.7365 10.6666 16.0001C10.6666 15.2637 11.2636 14.6667 12 14.6667H24.781L20.3905 10.2762C19.8698 9.75553 19.8698 8.91131 20.3905 8.39061Z" fill="#EADFFB"/>
</svg>
