<svg width="214" height="137" viewBox="0 0 214 137" fill="none" xmlns="http://www.w3.org/2000/svg">
<path d="M90.5415 99.5132C89.6575 105.348 88.4381 113.793 87.5905 119.632C87.5737 119.822 87.6033 120.013 87.6767 120.189C87.75 120.365 87.865 120.52 88.0117 120.641C90.4063 122.482 89.9721 124.825 87.0237 125.693C86.8599 125.74 86.7013 125.797 86.5037 125.865C87.4883 128.368 87.9826 131.037 87.9597 133.727C87.9597 135.425 86.2645 136.624 83.9426 136.619C81.7586 136.619 79.5043 135.36 79.2313 133.8C79.1011 132.913 79.2387 132.008 79.6265 131.2C80.5314 129.193 81.6234 127.24 82.692 125.165C81.7274 124.552 80.794 123.704 80.7524 122.539C80.7108 121.317 81.4492 120.488 82.8506 119.916C83.2068 119.77 83.6046 119.489 83.6462 119.216C84.5328 113.6 85.7445 105.09 86.5895 99.4561" fill="#481177"/>
<path d="M152.066 59.6407C152.066 65.028 151.218 69.9949 149.521 74.5415C147.947 78.9228 145.443 82.9111 142.18 86.2325C138.918 89.5538 134.976 92.1293 130.623 93.7819C126.157 95.5153 121.13 96.3871 115.543 96.3975C110.005 96.3975 105.024 95.5144 100.601 93.7481C96.2815 92.052 92.3663 89.4682 89.1085 86.1637C85.8507 82.8466 83.3378 78.8729 81.7374 74.5077C80.063 70.0252 79.9174 65.4856 80.635 59.6381C81.311 54.204 82.3146 49.3835 83.2142 44.6098C84.1372 39.7035 85.9027 36.1674 89.0747 32.9434C92.3376 29.6619 96.2687 27.1213 100.601 25.4942C105.107 23.7487 110.088 22.876 115.543 22.876C121.081 22.876 126.108 23.7591 130.623 25.5254C134.979 27.1693 138.927 29.7378 142.196 33.0539C145.464 36.3701 147.974 40.3551 149.554 44.7346C151.229 49.2396 152.066 54.2083 152.066 59.6407ZM136.107 59.6407C136.107 52.2669 132.064 46.526 128.78 42.4179C125.496 38.3099 121.084 36.2584 115.546 36.2584C111.972 36.2584 108.822 37.1745 106.097 39.0067C103.372 40.8388 101.273 43.5464 99.7999 47.1292C98.3248 50.7052 97.5873 54.8782 97.5873 59.6485C97.5873 64.3719 98.3136 68.4999 99.7661 72.0325C101.219 75.5651 103.293 78.2709 105.988 80.1498C108.692 82.0271 111.875 82.9657 115.538 82.9657C121.076 82.9657 125.488 80.9013 128.772 76.7724C132.064 72.6331 136.107 66.926 136.107 59.6407Z" fill="#481177"/>
<path d="M0 0.0142236C0.704613 1.85506 19.5264 11.0462 23.1664 12.8741C33.863 18.2458 50.0015 28.5056 55.1964 42.174C56.8838 46.6071 58.0253 49.6075 57.4299 53.7052C55.3914 67.7143 36.2629 72.5764 26.3151 94.1672C26.0551 94.7132 25.8679 95.1552 25.7613 95.4048C25.9069 95.5166 25.9823 95.6206 26.0577 95.6206C33.3898 95.6206 40.722 95.6778 48.0489 95.5452C54.0914 95.4386 58.7533 92.8438 62.7132 89.3493C69.4941 83.3692 73.1549 76.0266 75.6952 68.2707C81.3165 51.1104 79.9627 34.3132 71.6339 17.8792C69.0339 12.7467 65.4536 8.07697 60.2353 4.39531C57.6876 2.56326 54.7941 1.26822 51.7306 0.588832C49.9938 0.222837 48.2221 0.048458 46.4473 0.0688224C37.3055 0.0168214 3.13566 -0.0221771 0 0.0142236Z" fill="#481177"/>
<path d="M213.063 95.6175C212.543 94.2161 198.64 87.2142 195.955 85.8232C188.053 81.7333 176.137 73.9098 172.289 63.5096C171.044 60.1295 170.209 57.8467 170.643 54.724C172.146 44.0638 186.275 40.3509 193.622 23.9082C193.807 23.4922 193.95 23.1542 194.031 22.9644C193.921 22.8812 193.867 22.8006 193.81 22.8006C188.396 22.8006 182.98 22.7564 177.57 22.8578C173.105 22.9384 169.666 24.9144 166.74 27.5769C161.733 32.14 159.029 37.7171 157.151 43.6322C152.991 56.7087 153.991 69.5027 160.149 82.0141C162.079 85.9142 164.715 89.4788 168.568 92.2843C170.44 93.6716 172.579 94.6569 174.85 95.1781C176.131 95.4577 177.439 95.5929 178.75 95.5811C185.513 95.6175 210.746 95.6435 213.063 95.6175Z" fill="#481177"/>
<path d="M43.9743 114.307H35.0457L32.2039 130.279C31.9768 131.376 32.1917 132.226 32.8487 132.827C33.5056 133.428 34.5084 133.729 35.8569 133.729C36.6635 133.725 37.4678 133.645 38.2594 133.49C39.0714 133.337 39.873 133.133 40.6592 132.879L40.4564 135.739C39.5646 135.979 38.6612 136.175 37.7498 136.324C36.8572 136.485 35.9527 136.572 35.0457 136.584C33.8198 136.616 32.597 136.445 31.4264 136.08C30.575 135.815 29.7987 135.352 29.1618 134.728C28.6319 134.177 28.271 133.486 28.1218 132.736C27.9645 131.92 27.976 131.08 28.1556 130.269L30.9974 114.296H24.2373L24.7131 111.436H31.4732L32.7577 104.38H36.8163L35.5267 111.442H44.4553L43.9743 114.307Z" fill="#481177"/>
<path d="M73.3003 125.664C73.0784 126.869 72.8869 127.948 72.7257 128.901C72.5671 129.855 72.4449 130.739 72.3539 131.553C72.2629 132.367 72.1953 133.129 72.1511 133.836C72.1069 134.543 72.0835 135.25 72.0835 135.958H68.2874C68.2432 135.321 68.2432 134.683 68.2874 134.047C68.3313 133.348 68.4182 132.654 68.5474 131.966H68.4122C67.0488 133.503 65.3469 134.702 63.4409 135.469C61.5689 136.212 59.3025 136.584 56.6418 136.584C55.3237 136.588 54.0089 136.454 52.7183 136.186C51.5489 135.956 50.4282 135.525 49.4059 134.912C48.5002 134.373 47.7621 133.592 47.2738 132.658C46.8006 131.738 46.6767 130.623 46.902 129.314C47.1693 127.54 48.1272 125.942 49.5671 124.871C51.0596 123.752 52.7445 122.916 54.5383 122.403C56.4469 121.851 58.4072 121.495 60.3885 121.343C62.4182 121.183 64.2001 121.103 65.7341 121.103H70.4688L70.7288 119.619C71.0877 117.497 70.5234 115.976 69.0362 115.056C67.549 114.135 65.5426 113.675 63.0171 113.675C59.4704 113.647 55.985 114.601 52.9471 116.431L50.9841 114.255C52.8319 113.064 54.8678 112.193 57.0058 111.681C59.1276 111.12 61.3112 110.825 63.5059 110.805C67.2933 110.805 70.1906 111.503 72.1979 112.9C74.2051 114.297 74.9383 116.551 74.3975 119.66L73.3003 125.664ZM65.5235 123.646C63.8396 123.643 62.1567 123.73 60.4821 123.906C58.9677 124.058 57.4722 124.36 56.0178 124.809C54.8016 125.175 53.6581 125.75 52.6377 126.506C51.7582 127.14 51.1625 128.093 50.9789 129.161C50.8313 129.834 50.9233 130.538 51.2389 131.15C51.5649 131.743 52.0444 132.238 52.6273 132.583C53.2904 132.983 54.0126 133.276 54.7671 133.451C55.5876 133.645 56.4279 133.743 57.271 133.742C59.4342 133.742 61.2603 133.494 62.7493 132.999C64.0864 132.584 65.3361 131.927 66.4362 131.062C67.3589 130.323 68.1185 129.402 68.667 128.355C69.1647 127.396 69.5153 126.368 69.707 125.305L69.967 123.659L65.5235 123.646Z" fill="#481177"/>
<path d="M124.782 131.34C122.921 133.171 120.665 134.551 118.188 135.376C115.644 136.201 112.983 136.613 110.308 136.595C108.161 136.632 106.024 136.31 103.984 135.641C102.297 135.087 100.75 134.173 99.4525 132.96C98.2745 131.84 97.4111 130.431 96.9486 128.873C96.4699 127.17 96.4119 125.377 96.7796 123.647C97.0903 121.819 97.7947 120.081 98.8441 118.553C99.9231 116.975 101.275 115.6 102.835 114.495C104.488 113.319 106.313 112.406 108.246 111.788C110.333 111.12 112.513 110.789 114.704 110.805C117.095 110.805 119.146 111.133 120.859 111.788C122.417 112.344 123.836 113.231 125.019 114.388C126.046 115.41 126.792 116.68 127.185 118.075C127.567 119.44 127.624 120.875 127.354 122.266L126.948 124.497H100.703C100.568 125.351 100.58 126.221 100.737 127.071C100.923 128.179 101.376 129.226 102.055 130.121C102.892 131.207 103.972 132.08 105.209 132.672C106.584 133.379 108.466 133.733 110.856 133.733C112.995 133.72 115.115 133.325 117.115 132.565C119.21 131.787 120.89 130.725 122.154 129.38L124.782 131.34ZM123.363 121.629C123.552 120.599 123.462 119.537 123.103 118.553C122.723 117.57 122.096 116.701 121.282 116.031C120.35 115.266 119.283 114.681 118.136 114.308C116.817 113.871 115.434 113.656 114.044 113.671C111.834 113.671 109.927 114.024 108.324 114.731C106.887 115.337 105.552 116.16 104.367 117.173C103.456 117.944 102.668 118.847 102.027 119.853C101.507 120.719 101.226 121.312 101.182 121.629H123.363Z" fill="#481177"/>
<path d="M135.108 118.339C135.199 117.881 135.288 117.322 135.368 116.667C135.449 116.012 135.537 115.349 135.605 114.678C135.673 114.007 135.74 113.378 135.808 112.793C135.875 112.208 135.933 111.753 135.977 111.441H140.048C139.957 112.361 139.844 113.245 139.71 114.093C139.596 114.633 139.55 115.187 139.575 115.739H139.778C140.364 115.024 141.035 114.383 141.775 113.83C142.602 113.208 143.499 112.685 144.448 112.27C145.492 111.811 146.579 111.455 147.693 111.209C148.887 110.942 150.108 110.809 151.333 110.812C153.759 110.812 155.698 111.112 157.149 111.714C158.6 112.315 159.671 113.102 160.363 114.075C161.069 115.067 161.479 116.239 161.546 117.455C161.635 118.767 161.567 120.085 161.343 121.381L158.769 135.957H154.713L157.282 121.524C157.46 120.571 157.528 119.601 157.484 118.633C157.454 117.743 157.198 116.875 156.741 116.11C156.245 115.326 155.527 114.707 154.679 114.332C153.753 113.89 152.479 113.669 150.857 113.669C149.392 113.666 147.934 113.872 146.528 114.28C145.165 114.669 143.882 115.298 142.739 116.136C141.593 116.986 140.618 118.045 139.864 119.257C139.037 120.612 138.475 122.112 138.208 123.677L136.042 135.936H131.988L135.108 118.339Z" fill="#481177"/>
<path d="M186.746 114.307H177.818L174.976 130.279C174.751 131.376 174.965 132.226 175.618 132.827C176.272 133.428 177.275 133.729 178.629 133.729C179.435 133.725 180.238 133.645 181.029 133.49C181.842 133.337 182.644 133.133 183.431 132.879L183.229 135.739C182.337 135.979 181.433 136.175 180.522 136.324C179.629 136.485 178.725 136.572 177.818 136.584C176.592 136.616 175.369 136.445 174.199 136.08C173.346 135.815 172.569 135.352 171.931 134.728C171.402 134.176 171.041 133.485 170.891 132.736C170.734 131.92 170.746 131.08 170.925 130.269L173.767 114.296H167.007L167.48 111.436H174.24L175.525 104.38H179.57L178.286 111.436H187.214L186.746 114.307Z" fill="#481177"/>
<path d="M192.026 129.697C192.659 131.005 193.742 132.005 195.274 132.694C196.871 133.399 198.601 133.754 200.346 133.735C201.236 133.731 202.121 133.623 202.986 133.415C203.843 133.22 204.672 132.917 205.453 132.515C206.159 132.155 206.799 131.679 207.348 131.108C207.851 130.589 208.192 129.934 208.329 129.223C208.464 128.376 208.317 127.695 207.889 127.18C207.384 126.615 206.745 126.186 206.03 125.934C205.122 125.585 204.185 125.316 203.23 125.131C202.169 124.918 201.075 124.714 199.949 124.52C198.82 124.325 197.728 124.088 196.667 123.802C195.69 123.556 194.755 123.162 193.896 122.635C193.141 122.178 192.522 121.528 192.102 120.752C191.696 119.991 191.605 119.029 191.842 117.859C192.045 116.697 192.567 115.614 193.35 114.731C194.16 113.828 195.13 113.081 196.21 112.529C197.365 111.937 198.593 111.5 199.863 111.228C201.152 110.949 202.467 110.807 203.786 110.805C206.355 110.805 208.508 111.176 210.245 111.92C211.89 112.577 213.23 113.827 213.999 115.422L210.011 117.12C209.478 116.046 208.643 115.152 207.608 114.546C206.594 113.962 205.163 113.67 203.313 113.67C202.54 113.674 201.769 113.761 201.015 113.93C200.224 114.099 199.453 114.348 198.714 114.674C198.037 114.964 197.42 115.377 196.894 115.893C196.419 116.354 196.09 116.944 195.95 117.591C195.776 118.688 196.092 119.502 196.896 120.032C197.886 120.633 198.974 121.056 200.11 121.28C201.441 121.582 202.884 121.842 204.439 122.06C205.894 122.248 207.323 122.597 208.7 123.1C209.884 123.508 210.935 124.226 211.745 125.18C212.489 126.083 212.725 127.366 212.455 129.028C212.253 130.249 211.727 131.394 210.934 132.343C210.117 133.303 209.131 134.103 208.024 134.704C206.814 135.364 205.516 135.847 204.169 136.137C200.319 136.969 196.313 136.713 192.601 135.396C190.505 134.581 189.007 133.325 188.105 131.626L192.026 129.697Z" fill="#481177"/>
</svg>
