<svg width="156" height="100" viewBox="0 0 156 100" fill="none" xmlns="http://www.w3.org/2000/svg">
<path d="M66.0021 72.5424C65.3576 76.7956 64.4687 82.9518 63.8508 87.2088C63.8386 87.347 63.8601 87.4862 63.9136 87.6143C63.9671 87.7424 64.0509 87.8556 64.1579 87.9442C65.9035 89.2861 65.587 90.9938 63.4376 91.6269C63.3182 91.661 63.2026 91.7027 63.0586 91.752C63.7763 93.5768 64.1367 95.5227 64.12 97.4835C64.12 98.7212 62.8842 99.595 61.1916 99.5912C59.5995 99.5912 57.9562 98.6738 57.7572 97.5366C57.6623 96.8902 57.7626 96.2302 58.0453 95.6413C58.7049 94.178 59.501 92.7546 60.2799 91.2421C59.5768 90.7948 58.8963 90.1769 58.866 89.3278C58.8357 88.437 59.374 87.8323 60.3956 87.4154C60.6552 87.3092 60.9452 87.1045 60.9755 86.9055C61.6219 82.8115 62.5051 76.608 63.1211 72.5007" fill="white"/>
<path d="M110.852 43.4767C110.852 47.4039 110.234 51.0247 108.997 54.3391C107.849 57.5329 106.024 60.4403 103.646 62.8615C101.268 65.2826 98.3939 67.1601 95.2213 68.3648C91.9651 69.6284 88.3007 70.2639 84.2282 70.2715C80.191 70.2715 76.5602 69.6277 73.3355 68.3401C70.1869 67.1038 67.3328 65.2202 64.958 62.8114C62.5832 60.3933 60.7513 57.4966 59.5846 54.3144C58.364 51.0468 58.2579 47.7375 58.781 43.4748C59.2738 39.5135 60.0054 35.9995 60.6612 32.5196C61.3341 28.9431 62.621 26.3654 64.9334 24.0151C67.3119 21.623 70.1775 19.771 73.3355 18.5849C76.6208 17.3125 80.2517 16.6763 84.2282 16.6763C88.2653 16.6763 91.9297 17.3201 95.2213 18.6076C98.3967 19.806 101.275 21.6784 103.657 24.0957C106.039 26.5131 107.87 29.4181 109.021 32.6106C110.242 35.8946 110.852 39.5167 110.852 43.4767ZM99.2186 43.4767C99.2186 38.1015 96.2713 33.9165 93.8775 30.9218C91.4836 27.9272 88.2672 26.4317 84.2301 26.4317C81.6246 26.4317 79.3287 27.0995 77.3423 28.4351C75.356 29.7707 73.8258 31.7444 72.7517 34.3562C71.6764 36.963 71.1388 40.0051 71.1388 43.4824C71.1388 46.9257 71.6682 49.9349 72.7271 52.5101C73.786 55.0852 75.2978 57.0577 77.2627 58.4274C79.2339 59.7958 81.5544 60.4801 84.2244 60.4801C88.2615 60.4801 91.4773 58.9751 93.8718 55.9653C96.2713 52.9479 99.2186 48.7876 99.2186 43.4767Z" fill="white"/>
<path d="M0 0.0103686C0.513644 1.35229 14.2342 8.0524 16.8877 9.38485C24.6852 13.3007 36.4498 20.7798 40.2367 30.7437C41.4668 33.9753 42.2989 36.1626 41.8648 39.1497C40.3789 49.3619 26.4347 52.9062 19.183 68.6453C18.9935 69.0434 18.857 69.3656 18.7793 69.5475C18.8854 69.629 18.9404 69.7049 18.9954 69.7049C24.3403 69.7049 29.6852 69.7466 35.0264 69.6499C39.4312 69.5722 42.8296 67.6806 45.7162 65.1332C50.6593 60.7739 53.328 55.4214 55.1798 49.7675C59.2775 37.2581 58.2907 25.0134 52.2192 13.0334C50.3238 9.29197 47.7139 5.8879 43.9099 3.20406C42.0527 1.86855 39.9435 0.924497 37.7102 0.429243C36.4441 0.162442 35.1526 0.0353246 33.8588 0.0501697C27.1947 0.0122624 2.28581 -0.0161665 0 0.0103686Z" fill="white"/>
<path d="M155.317 69.7026C154.938 68.681 144.804 63.5768 142.846 62.5628C137.086 59.5814 128.399 53.8782 125.594 46.2967C124.686 43.8328 124.078 42.1686 124.395 39.8923C125.49 32.1213 135.789 29.4147 141.146 17.4284C141.28 17.1252 141.385 16.8788 141.443 16.7404C141.364 16.6798 141.324 16.621 141.282 16.621C137.336 16.621 133.388 16.5888 129.444 16.6627C126.189 16.7215 123.682 18.1619 121.55 20.1028C117.899 23.4292 115.928 27.4947 114.56 31.8067C111.527 41.3391 112.255 50.6656 116.745 59.7861C118.151 62.6291 120.073 65.2277 122.882 67.2728C124.247 68.2841 125.806 69.0023 127.461 69.3823C128.395 69.5861 129.349 69.6847 130.304 69.6761C135.234 69.7026 153.629 69.7216 155.317 69.7026Z" fill="white"/>
<path d="M32.0565 83.3266H25.5479L23.4762 94.9698C23.3107 95.7697 23.4674 96.3888 23.9463 96.8273C24.4252 97.2657 25.1561 97.485 26.1392 97.485C26.7272 97.4818 27.3135 97.4235 27.8905 97.3106C28.4825 97.1993 29.0668 97.0506 29.64 96.8652L29.4921 98.9501C28.842 99.1253 28.1835 99.2677 27.519 99.3765C26.8684 99.4942 26.209 99.5576 25.5479 99.5661C24.6542 99.589 23.7628 99.4648 22.9095 99.1984C22.2888 99.0055 21.7229 98.6677 21.2586 98.2128C20.8724 97.8112 20.6093 97.3074 20.5005 96.7609C20.3859 96.166 20.3943 95.5538 20.5251 94.9622L22.5968 83.319H17.6688L18.0157 81.2341H22.9436L23.8799 76.0901H26.8386L25.8985 81.2379H32.4072L32.0565 83.3266Z" fill="white"/>
<path d="M53.4341 91.6057C53.2724 92.4839 53.1327 93.2705 53.0152 93.9654C52.8996 94.661 52.8105 95.3054 52.7442 95.8987C52.6778 96.4919 52.6286 97.0473 52.5963 97.5628C52.5641 98.0784 52.5471 98.5939 52.5471 99.1094H49.7798C49.7476 98.6456 49.7476 98.1802 49.7798 97.7163C49.8119 97.2075 49.8752 96.7011 49.9694 96.2001H49.8708C48.8769 97.3203 47.6363 98.1943 46.2469 98.7531C44.8822 99.2952 43.2301 99.5662 41.2905 99.5662C40.3297 99.5688 39.3711 99.4716 38.4304 99.2762C37.5779 99.1083 36.761 98.7941 36.0157 98.3475C35.3555 97.9542 34.8174 97.3853 34.4615 96.7042C34.1165 96.0333 34.0262 95.2208 34.1904 94.2668C34.3853 92.973 35.0836 91.8087 36.1332 91.0276C37.2212 90.2118 38.4495 89.6022 39.7571 89.2289C41.1484 88.8259 42.5775 88.5667 44.0217 88.4556C45.5014 88.3393 46.8003 88.2812 47.9186 88.2812H51.37L51.5596 87.199C51.8211 85.6523 51.4098 84.5436 50.3257 83.8726C49.2415 83.2016 47.779 82.8662 45.9379 82.8662C43.3525 82.8454 40.8117 83.5408 38.5972 84.8752L37.1662 83.2888C38.5132 82.4204 39.9973 81.786 41.5558 81.4124C43.1026 81.0032 44.6944 80.7886 46.2942 80.7737C49.0552 80.7737 51.1672 81.2829 52.6305 82.3013C54.0937 83.3198 54.6282 84.9624 54.2339 87.2293L53.4341 91.6057ZM47.7651 90.1349C46.5375 90.1324 45.3107 90.1957 44.0899 90.3244C42.986 90.4351 41.8959 90.6554 40.8356 90.9821C39.949 91.2495 39.1154 91.6682 38.3716 92.2198C37.7305 92.6814 37.2962 93.3763 37.1624 94.155C37.0548 94.6456 37.1218 95.1584 37.3519 95.6049C37.5895 96.0375 37.9391 96.3982 38.364 96.6493C38.8474 96.9411 39.3739 97.1548 39.9239 97.2823C40.522 97.424 41.1346 97.4952 41.7492 97.4946C43.3261 97.4946 44.6573 97.3139 45.7427 96.9525C46.7174 96.6502 47.6284 96.1716 48.4303 95.5405C49.103 95.0023 49.6567 94.3305 50.0565 93.5674C50.4194 92.8685 50.675 92.1191 50.8147 91.3441L51.0042 90.1444L47.7651 90.1349Z" fill="white"/>
<path d="M90.9624 95.7435C89.6054 97.0776 87.9613 98.0838 86.1557 98.6851C84.3007 99.2868 82.3611 99.587 80.4109 99.574C78.8463 99.6009 77.2883 99.3658 75.8014 98.8784C74.5713 98.4748 73.4439 97.808 72.4977 96.9243C71.639 96.108 71.0097 95.0806 70.6725 93.9448C70.3235 92.7036 70.2813 91.3962 70.5493 90.1351C70.7758 88.8029 71.2893 87.536 72.0542 86.4221C72.8408 85.2711 73.826 84.2692 74.9636 83.4634C76.1686 82.606 77.4991 81.9404 78.9079 81.4903C80.4294 81.0035 82.0186 80.7617 83.616 80.7739C85.3584 80.7739 86.8539 81.0127 88.1023 81.4903C89.2383 81.8954 90.273 82.542 91.1349 83.3857C91.8839 84.1306 92.4277 85.0564 92.7137 86.0733C92.9922 87.0683 93.0343 88.1145 92.8369 89.1286L92.5412 90.7549H73.4094C73.311 91.3772 73.3193 92.0117 73.4341 92.6313C73.57 93.4391 73.8997 94.202 74.395 94.8545C75.0051 95.6459 75.7926 96.2828 76.6941 96.7139C77.6961 97.2294 79.0683 97.4872 80.8108 97.4872C82.3701 97.4782 83.9153 97.19 85.373 96.6362C86.9006 96.0688 88.125 95.2949 89.0462 94.3144L90.9624 95.7435ZM89.9275 88.6643C90.0656 87.9134 90.0001 87.1392 89.738 86.4221C89.4613 85.7053 89.0043 85.072 88.4112 84.5836C87.7316 84.0256 86.9538 83.5994 86.1178 83.3269C85.1559 83.0085 84.1478 82.8516 83.1345 82.8626C81.5235 82.8626 80.1335 83.1203 78.9647 83.6359C77.9173 84.0771 76.9443 84.6775 76.08 85.4156C75.4165 85.9777 74.8414 86.6364 74.3742 87.3697C73.9951 88.0009 73.7904 88.433 73.7582 88.6643H89.9275Z" fill="white"/>
<path d="M98.491 86.2664C98.5573 85.9328 98.6218 85.5253 98.6805 85.0477C98.7393 84.5701 98.8037 84.0867 98.853 83.5977C98.9023 83.1087 98.9516 82.6501 99.0008 82.2236C99.0501 81.7971 99.0918 81.4654 99.124 81.238H102.092C102.025 81.909 101.943 82.5534 101.846 83.1713C101.762 83.5654 101.729 83.9686 101.747 84.371H101.895C102.322 83.8501 102.811 83.383 103.351 82.9798C103.954 82.5264 104.608 82.1448 105.299 81.8426C106.06 81.5076 106.853 81.2486 107.665 81.0693C108.536 80.8745 109.426 80.7773 110.318 80.7793C112.087 80.7793 113.5 80.9986 114.558 81.437C115.616 81.8755 116.397 82.4491 116.901 83.158C117.415 83.8813 117.714 84.7356 117.763 85.622C117.828 86.5785 117.778 87.5393 117.615 88.484L115.739 99.1094H112.782L114.655 88.5882C114.784 87.8937 114.834 87.1865 114.803 86.4806C114.78 85.8318 114.594 85.1993 114.26 84.6421C113.899 84.0705 113.376 83.6193 112.757 83.3456C112.083 83.0234 111.154 82.8623 109.971 82.8623C108.903 82.8604 107.841 83.0104 106.815 83.3078C105.822 83.5914 104.887 84.0496 104.054 84.661C103.218 85.2806 102.507 86.0522 101.958 86.9355C101.355 87.9236 100.946 89.0169 100.75 90.1576L99.1714 99.0942H96.2166L98.491 86.2664Z" fill="white"/>
<path d="M136.133 83.3266H129.624L127.553 94.9698C127.388 95.7697 127.544 96.3888 128.021 96.8273C128.497 97.2657 129.229 97.485 130.216 97.485C130.803 97.4818 131.389 97.4234 131.965 97.3106C132.558 97.1993 133.143 97.0506 133.716 96.8652L133.568 98.9501C132.918 99.1253 132.26 99.2677 131.595 99.3765C130.945 99.4941 130.285 99.5575 129.624 99.5661C128.731 99.589 127.839 99.4648 126.986 99.1984C126.365 99.0054 125.798 98.6676 125.333 98.2128C124.947 97.8109 124.684 97.3072 124.575 96.7609C124.46 96.166 124.469 95.5538 124.6 94.9622L126.671 83.319H121.743L122.088 81.2341H127.016L127.953 76.0901H130.902L129.965 81.2341H136.474L136.133 83.3266Z" fill="white"/>
<path d="M139.982 94.5454C140.443 95.4994 141.232 96.2279 142.349 96.7308C143.514 97.2443 144.775 97.5028 146.047 97.4889C146.695 97.4862 147.341 97.408 147.971 97.2558C148.596 97.1136 149.2 96.8932 149.77 96.6C150.284 96.3374 150.751 95.9908 151.152 95.5746C151.518 95.1956 151.766 94.7181 151.866 94.2004C151.965 93.5826 151.858 93.086 151.546 92.7107C151.178 92.2989 150.711 91.9866 150.191 91.8028C149.529 91.5479 148.846 91.3519 148.149 91.2171C147.376 91.0617 146.579 90.9133 145.757 90.7717C144.935 90.6296 144.139 90.4571 143.365 90.2486C142.653 90.0688 141.971 89.7819 141.345 89.3976C140.795 89.0644 140.343 88.5907 140.037 88.0253C139.741 87.47 139.675 86.7687 139.848 85.9158C139.996 85.0687 140.376 84.2793 140.947 83.6357C141.538 82.9774 142.244 82.4332 143.032 82.0303C143.874 81.5989 144.769 81.2803 145.695 81.0826C146.634 80.8788 147.593 80.7752 148.555 80.7737C150.427 80.7737 151.997 81.0447 153.263 81.5868C154.462 82.0657 155.439 82.9766 156 84.1398L153.092 85.3775C152.704 84.5947 152.095 83.9425 151.341 83.5011C150.602 83.0753 149.558 82.8624 148.21 82.8624C147.646 82.8654 147.084 82.9289 146.534 83.0519C145.958 83.1749 145.396 83.3566 144.857 83.594C144.364 83.8056 143.914 84.107 143.53 84.4829C143.184 84.8188 142.945 85.2493 142.842 85.7206C142.716 86.5204 142.946 87.1137 143.532 87.5003C144.254 87.9385 145.047 88.2465 145.875 88.4101C146.845 88.63 147.897 88.8195 149.031 88.9787C150.091 89.1157 151.133 89.37 152.137 89.7369C153 90.0341 153.766 90.5578 154.357 91.2532C154.899 91.9115 155.071 92.8465 154.874 94.0583C154.726 94.9483 154.344 95.7826 153.765 96.4749C153.17 97.174 152.451 97.7574 151.644 98.1959C150.762 98.6769 149.816 99.0286 148.833 99.2402C146.027 99.847 143.107 99.6599 140.401 98.7C138.873 98.1062 137.781 97.1901 137.124 95.9518L139.982 94.5454Z" fill="white"/>
</svg>
