<svg width="38" height="38" viewBox="0 0 38 38" fill="none" xmlns="http://www.w3.org/2000/svg">
<path fill-rule="evenodd" clip-rule="evenodd" d="M29.5556 25.6047C27.0957 26.4625 25.3333 28.7773 25.3333 31.4982C25.3333 34.9495 28.1689 37.7473 31.6667 37.7473C35.1645 37.7473 38 34.9495 38 31.4982C38 28.7773 36.2376 26.4625 33.7778 25.6047V10.6678C33.7778 7.21652 30.9422 4.4187 27.4444 4.4187H22.785L23.6593 3.55596C24.4838 2.74249 24.4838 1.42358 23.6593 0.610107C22.8349 -0.203369 21.4982 -0.203369 20.6738 0.610107L16.1955 5.02881C15.3711 5.84228 15.3711 7.16119 16.1955 7.97466L20.6738 12.3935C21.4983 13.2069 22.835 13.2069 23.6594 12.3935C24.4839 11.58 24.4839 10.2611 23.6594 9.44759L22.785 8.58477H27.4444C28.6104 8.58477 29.5556 9.51738 29.5556 10.6678V25.6047ZM33.7778 31.4982C33.7778 32.6486 32.8326 33.5812 31.6667 33.5812C30.5007 33.5812 29.5556 32.6486 29.5556 31.4982C29.5556 30.3477 30.5007 29.4151 31.6667 29.4151C32.8326 29.4151 33.7778 30.3477 33.7778 31.4982Z" fill="#EADFFB"/>
<path fill-rule="evenodd" clip-rule="evenodd" d="M8.44444 12.3953C10.9043 11.5374 12.6667 9.22264 12.6667 6.50174C12.6667 3.05045 9.83114 0.252626 6.33333 0.252626C2.83553 0.252626 0 3.05045 0 6.50174C0 9.22264 1.76237 11.5374 4.22222 12.3953V27.3321C4.22222 30.7834 7.05775 33.5812 10.5556 33.5812H15.215L14.3406 34.444C13.5161 35.2575 13.5161 36.5764 14.3406 37.3899C15.165 38.2034 16.5017 38.2034 17.3262 37.3899L21.8045 32.9711C22.6289 32.1576 22.6289 30.8387 21.8045 30.0252L17.3262 25.6065C16.5017 24.793 15.165 24.793 14.3406 25.6065C13.5161 26.4199 13.5161 27.7388 14.3406 28.5523L15.215 29.4151H10.5556C9.38962 29.4151 8.44444 28.4825 8.44444 27.3321V12.3953ZM4.22222 6.50174C4.22222 5.35131 5.1674 4.4187 6.33333 4.4187C7.49927 4.4187 8.44444 5.35131 8.44444 6.50174C8.44444 7.65217 7.49927 8.58477 6.33333 8.58477C5.1674 8.58477 4.22222 7.65217 4.22222 6.50174Z" fill="#EADFFB"/>
</svg>
