<svg width="218" height="218" viewBox="0 0 218 218" fill="none" xmlns="http://www.w3.org/2000/svg">
<path fill-rule="evenodd" clip-rule="evenodd" d="M86.8398 127.872C103.046 125.542 114.205 125.743 130.433 127.953C131.609 128.121 132.682 128.701 133.457 129.587C134.231 130.473 134.653 131.605 134.645 132.773C134.645 133.891 134.255 134.977 133.549 135.825C132.319 137.303 131.06 138.757 129.77 140.185H136.023C136.416 139.724 136.812 139.254 137.212 138.776C138.616 137.082 139.383 134.962 139.381 132.775C139.381 128.058 135.881 123.993 131.082 123.341C114.47 121.079 102.859 120.862 86.1555 123.264C81.3065 123.961 77.8213 128.088 77.8213 132.838C77.8213 134.946 78.5198 137.031 79.8433 138.72C80.2339 139.219 80.6199 139.708 81.0034 140.188H87.1049C85.9055 138.775 84.7356 137.338 83.596 135.878C82.9188 135.004 82.5535 133.935 82.5566 132.836C82.5566 130.327 84.3892 128.223 86.8398 127.872ZM108.601 105.243C110.467 105.243 112.314 104.882 114.037 104.179C115.761 103.477 117.327 102.447 118.646 101.149C119.965 99.8515 121.012 98.3107 121.726 96.615C122.44 94.9192 122.807 93.1017 122.807 91.2662C122.807 89.4308 122.44 87.6133 121.726 85.9175C121.012 84.2218 119.965 82.6809 118.646 81.3831C117.327 80.0852 115.761 79.0557 114.037 78.3533C112.314 77.6509 110.467 77.2893 108.601 77.2893C104.833 77.2893 101.22 78.7619 98.5558 81.3831C95.8917 84.0043 94.395 87.5593 94.395 91.2662C94.395 94.9731 95.8917 98.5282 98.5558 101.149C101.22 103.771 104.833 105.243 108.601 105.243ZM108.601 109.902C113.625 109.902 118.442 107.939 121.995 104.444C125.547 100.949 127.542 96.2088 127.542 91.2662C127.542 86.3237 125.547 81.5836 121.995 78.0887C118.442 74.5938 113.625 72.6304 108.601 72.6304C103.577 72.6304 98.7596 74.5938 95.2074 78.0887C91.6553 81.5836 89.6596 86.3237 89.6596 91.2662C89.6596 96.2088 91.6553 100.949 95.2074 104.444C98.7596 107.939 103.577 109.902 108.601 109.902Z" fill="#1E2959"/>
<path fill-rule="evenodd" clip-rule="evenodd" d="M108.601 144.845C132.138 144.845 151.219 126.072 151.219 102.914C151.219 79.757 132.138 60.9837 108.601 60.9837C85.0644 60.9837 65.9834 79.757 65.9834 102.914C65.9834 126.072 85.0644 144.845 108.601 144.845ZM108.601 149.504C134.755 149.504 155.955 128.646 155.955 102.914C155.955 77.1829 134.755 56.3247 108.601 56.3247C82.4482 56.3247 61.248 77.1829 61.248 102.914C61.248 128.646 82.4482 149.504 108.601 149.504Z" fill="#1E2959"/>
<circle cx="109" cy="109" r="108" stroke="#1E2959" stroke-width="2"/>
</svg>
