<svg width="38" height="38" viewBox="0 0 38 38" fill="none" xmlns="http://www.w3.org/2000/svg">
<path fill-rule="evenodd" clip-rule="evenodd" d="M3.8 0C1.70132 0 0 1.89035 0 4.22222V33.7778C0 36.1096 1.70132 38 3.8 38H34.2C36.2987 38 38 36.1096 38 33.7778V9.5C38 7.16813 36.2987 5.27778 34.2 5.27778H19.9132L17.2541 1.58462C16.533 0.583046 15.4412 0 14.2868 0H3.8ZM3.8 4.22222H14.2868L16.9459 7.91538C17.667 8.91695 18.7588 9.5 19.9132 9.5H34.2V12.6667H3.8V4.22222ZM3.8 16.8889V33.7778H34.2V16.8889H3.8Z" fill="#EADFFB"/>
</svg>
