<svg width="32" height="32" viewBox="0 0 32 32" fill="none" xmlns="http://www.w3.org/2000/svg">
<path fill-rule="evenodd" clip-rule="evenodd" d="M3.2 0C1.43269 0 0 1.59188 0 3.55556V28.4444C0 30.4081 1.43269 32 3.2 32H28.8C30.5673 32 32 30.4081 32 28.4444V8C32 6.03632 30.5673 4.44444 28.8 4.44444H16.769L14.5298 1.33442C13.9225 0.490986 13.0031 0 12.031 0H3.2ZM3.2 3.55556H12.031L14.2702 6.66558C14.8775 7.50901 15.7969 8 16.769 8H28.8V10.6667H3.2V3.55556ZM3.2 14.2222V28.4444H28.8V14.2222H3.2Z" fill="#EADFFB"/>
</svg>
