<svg width="38" height="38" viewBox="0 0 38 38" fill="none" xmlns="http://www.w3.org/2000/svg">
<path fill-rule="evenodd" clip-rule="evenodd" d="M11.4 4.22222C11.4 1.89035 13.1013 0 15.2 0H22.8C24.8987 0 26.6 1.89035 26.6 4.22222V10.5556H34.2C36.2987 10.5556 38 12.4459 38 14.7778V33.7778C38 36.1096 36.2987 38 34.2 38H3.8C1.70132 38 0 36.1096 0 33.7778V21.1111C0 18.7792 1.70132 16.8889 3.8 16.8889H11.4V4.22222ZM22.8 33.7778V4.22222H15.2V33.7778H22.8ZM26.6 33.7778H34.2V14.7778H26.6V33.7778ZM11.4 21.1111V33.7778H3.8V21.1111H11.4Z" fill="#EADFFB"/>
</svg>
