<svg width="117" height="495" viewBox="0 0 117 495" fill="none" xmlns="http://www.w3.org/2000/svg">
<rect x="52.3633" y="108.606" width="10.6667" height="80.4848" fill="#481177"/>
<rect x="52.3633" y="302.546" width="10.6667" height="80.4848" fill="#481177"/>
<circle cx="58.1818" cy="58.1818" r="58.1818" fill="#FAEAE3"/>
<circle cx="58.1824" cy="58.1824" r="38.7879" fill="#481177"/>
<path d="M53.8915 48.7586V45.2289H60.9509V69.9707H57.0479V48.7586H53.8915Z" fill="white"/>
<circle cx="58.1818" cy="247.273" r="58.1818" fill="#EEDFFC"/>
<circle cx="58.1824" cy="249.213" r="37.8182" stroke="#481177" stroke-width="1.93939"/>
<path d="M52.6599 255.74C54.832 253.862 56.5403 252.324 57.7847 251.125C59.0518 249.903 60.1039 248.636 60.9411 247.323C61.7783 246.011 62.1969 244.699 62.1969 243.386C62.1969 242.029 61.8688 240.965 61.2126 240.196C60.5791 239.427 59.5722 239.042 58.192 239.042C56.8571 239.042 55.8163 239.472 55.0696 240.332C54.3456 241.169 53.9609 242.3 53.9157 243.726H50.1823C50.2502 241.146 51.0195 239.178 52.4902 237.82C53.9835 236.44 55.8728 235.75 58.1581 235.75C60.6243 235.75 62.5476 236.429 63.9278 237.786C65.3306 239.144 66.032 240.954 66.032 243.217C66.032 244.846 65.6134 246.418 64.7763 247.934C63.9617 249.428 62.9775 250.774 61.8235 251.973C60.6922 253.15 59.2441 254.519 57.4793 256.08L55.952 257.437H66.7108V260.662H50.2163V257.845L52.6599 255.74Z" fill="#481177"/>
<circle cx="58.1818" cy="436.363" r="58.1818" fill="#FAEAE3"/>
<circle cx="58.1824" cy="436.364" r="37.8182" stroke="#481177" stroke-width="1.93939"/>
<path d="M50.4538 429.52C50.5896 427.415 51.3928 425.775 52.8635 424.598C54.3569 423.422 56.2575 422.834 58.5654 422.834C60.1492 422.834 61.5181 423.116 62.672 423.682C63.826 424.248 64.6971 425.017 65.2854 425.99C65.8736 426.963 66.1678 428.06 66.1678 429.282C66.1678 430.685 65.7944 431.884 65.0478 432.88C64.3011 433.875 63.4074 434.543 62.3666 434.882V435.018C63.7015 435.425 64.7423 436.172 65.489 437.258C66.2357 438.321 66.609 439.69 66.609 441.364C66.609 442.699 66.3035 443.887 65.6926 444.928C65.0817 445.969 64.1767 446.795 62.9775 447.406C61.7783 447.994 60.3415 448.288 58.6672 448.288C56.2235 448.288 54.2098 447.666 52.626 446.421C51.0647 445.154 50.2276 443.344 50.1144 440.991H53.8478C53.9383 442.19 54.4021 443.175 55.2393 443.944C56.0765 444.691 57.2078 445.064 58.6332 445.064C60.0134 445.064 61.0769 444.691 61.8235 443.944C62.5702 443.175 62.9435 442.19 62.9435 440.991C62.9435 439.407 62.4344 438.287 61.4163 437.631C60.4207 436.952 58.8821 436.613 56.8005 436.613H55.9181V433.423H56.8344C58.6672 433.4 60.0587 433.095 61.009 432.506C61.9819 431.918 62.4684 430.99 62.4684 429.723C62.4684 428.637 62.1177 427.777 61.4163 427.144C60.7148 426.488 59.7193 426.16 58.4296 426.16C57.1625 426.16 56.1783 426.488 55.4769 427.144C54.7755 427.777 54.3569 428.569 54.2211 429.52H50.4538Z" fill="#481177"/>
</svg>
