<svg width="38" height="38" viewBox="0 0 38 38" fill="none" xmlns="http://www.w3.org/2000/svg">
<path fill-rule="evenodd" clip-rule="evenodd" d="M5.69997 10.0588C5.69997 4.50349 9.52795 0 14.25 0C18.972 0 22.8 4.50349 22.8 10.0588C22.8 15.6142 18.972 20.1176 14.25 20.1176C9.52795 20.1176 5.69997 15.6142 5.69997 10.0588ZM14.25 4.47059C11.6266 4.47059 9.49998 6.97253 9.49998 10.0588C9.49998 13.1451 11.6266 15.6471 14.25 15.6471C16.8734 15.6471 19 13.1451 19 10.0588C19 6.97253 16.8734 4.47059 14.25 4.47059Z" fill="#EADFFB"/>
<path d="M0 31.2941C0 26.356 3.40265 22.3529 7.60002 22.3529H20.9001C25.0974 22.3529 28.5001 26.356 28.5001 31.2941V35.7647C28.5001 36.9992 27.6494 38 26.6001 38C25.5507 38 24.7001 36.9992 24.7001 35.7647V31.2941C24.7001 28.8251 22.9988 26.8235 20.9001 26.8235H7.60002C5.50133 26.8235 3.80001 28.8251 3.80001 31.2941V35.7647C3.80001 36.9992 2.94935 38 1.90001 38C0.850662 38 0 36.9992 0 35.7647V31.2941Z" fill="#EADFFB"/>
<path fill-rule="evenodd" clip-rule="evenodd" d="M30.4001 6.70588C27.2521 6.70588 24.7001 9.70821 24.7001 13.4118C24.7001 17.1153 27.2521 20.1176 30.4001 20.1176C33.5481 20.1176 36.1001 17.1153 36.1001 13.4118C36.1001 9.70821 33.5481 6.70588 30.4001 6.70588ZM28.5001 13.4118C28.5001 12.1772 29.3507 11.1765 30.4001 11.1765C31.4494 11.1765 32.3001 12.1772 32.3001 13.4118C32.3001 14.6463 31.4494 15.6471 30.4001 15.6471C29.3507 15.6471 28.5001 14.6463 28.5001 13.4118Z" fill="#EADFFB"/>
<path d="M29.6098 26.8241C28.9489 25.0443 27.9054 23.5061 26.6016 22.3535H32.3C35.448 22.3535 38 25.3558 38 29.0594V33.53C38 34.7645 37.1493 35.7653 36.1 35.7653C35.0507 35.7653 34.2 34.7645 34.2 33.53V29.0594C34.2 27.8249 33.3493 26.8241 32.3 26.8241H29.6098Z" fill="#EADFFB"/>
</svg>
